<svg width="109.7" height="22.0" viewBox="0 0 3561.0 714.0" xmlns="http://www.w3.org/2000/svg" fill="#09090B" role="img" aria-label="Postrun">
<g transform="translate(-69.50,700.00) scale(1,-1)">
<path transform="translate(0.00,0)" d="M69.499755859375 0V700H352.42510986328125Q417.72515869140625 700 468.0501708984375 674.0249633789062Q518.3751831054688 648.0499267578125 546.9626770019531 600.7498779296875Q575.5501708984375 553.4498291015625 575.5501708984375 487.97479248046875V474.32476806640625Q575.5501708984375 409.67474365234375 546.0501708984375 361.87469482421875Q516.5501708984375 314.07464599609375 466.22515869140625 288.1871032714844Q415.900146484375 262.299560546875 352.42510986328125 262.299560546875H189.6005859375V0ZM189.6005859375 371.4503173828125H340.47503662109375Q392.37469482421875 371.4503173828125 423.9120178222656 399.37518310546875Q455.4493408203125 427.300048828125 455.4493408203125 476.1497802734375V486.1497802734375Q455.4493408203125 535.1744995117188 424.0870056152344 563.0118713378906Q392.72467041015625 590.8492431640625 340.47503662109375 590.8492431640625H189.6005859375Z"/>
<path transform="translate(583.00,0)" d="M306.699951171875 -14Q232.699951171875 -14 174.31240844726562 16.262481689453125Q115.92486572265625 46.52496337890625 82.53732299804688 103.43746948242188Q49.1497802734375 160.3499755859375 49.1497802734375 239.47503662109375V254.77508544921875Q49.1497802734375 333.900146484375 82.53732299804688 390.8126525878906Q115.92486572265625 447.72515869140625 174.31240844726562 477.9876403808594Q232.699951171875 508.2501220703125 306.699951171875 508.2501220703125Q380.699951171875 508.2501220703125 439.0874938964844 477.9876403808594Q497.47503662109375 447.72515869140625 530.8625793457031 390.8126525878906Q564.2501220703125 333.900146484375 564.2501220703125 254.77508544921875V239.47503662109375Q564.2501220703125 160.3499755859375 530.8625793457031 103.43746948242188Q497.47503662109375 46.52496337890625 439.0874938964844 16.262481689453125Q380.699951171875 -14 306.699951171875 -14ZM306.699951171875 87.8507080078125Q369.599609375 87.8507080078125 409.699462890625 128.32550048828125Q449.79931640625 168.80029296875 449.79931640625 242.300048828125V251.9500732421875Q449.79931640625 325.4498291015625 410.1119689941406 365.92462158203125Q370.42462158203125 406.3994140625 306.699951171875 406.3994140625Q243.97528076171875 406.3994140625 203.78793334960938 365.92462158203125Q163.6005859375 325.4498291015625 163.6005859375 251.9500732421875V242.300048828125Q163.6005859375 168.80029296875 203.78793334960938 128.32550048828125Q243.97528076171875 87.8507080078125 306.699951171875 87.8507080078125Z"/>
<path transform="translate(1176.00,0)" d="M276.87493896484375 -14Q181.4498291015625 -14 119.36233520507812 28.0Q57.27484130859375 70 44.099853515625 151.32476806640625L150.12554931640625 178Q157.300537109375 139.8502197265625 175.200439453125 118.01284790039062Q193.100341796875 96.17547607421875 219.52520751953125 86.88803100585938Q245.9500732421875 77.6005859375 276.87493896484375 77.6005859375Q323.67474365234375 77.6005859375 347.3870544433594 94.67547607421875Q371.099365234375 111.7503662109375 371.099365234375 138.2501220703125Q371.099365234375 164.92486572265625 348.5620422363281 178.21231079101562Q326.02471923828125 191.499755859375 279.7498779296875 199.8497314453125L248.60009765625 205.37469482421875Q197.6500244140625 215.02471923828125 155.699951171875 232.3497314453125Q113.7498779296875 249.67474365234375 88.53732299804688 280.1497802734375Q63.32476806640625 310.62481689453125 63.32476806640625 358.39990234375Q63.32476806640625 430.47503662109375 116.53732299804688 469.3625793457031Q169.7498779296875 508.2501220703125 256.699951171875 508.2501220703125Q339.699951171875 508.2501220703125 393.9125061035156 471.1626281738281Q448.12506103515625 434.07513427734375 464.42510986328125 372.1502685546875L358.099365234375 340.3499755859375Q349.7493896484375 381.8497314453125 322.97454833984375 399.2496337890625Q296.19970703125 416.6495361328125 256.699951171875 416.6495361328125Q217.37518310546875 416.6495361328125 195.92535400390625 402.6621398925781Q174.47552490234375 388.67474365234375 174.47552490234375 363.3499755859375Q174.47552490234375 336.5501708984375 196.22540283203125 323.82525634765625Q217.97528076171875 311.100341796875 255.12506103515625 304.57537841796875L286.27484130859375 299.0504150390625Q341.22491455078125 289.400390625 385.7624816894531 273.07537841796875Q430.300048828125 256.7503662109375 456.27508544921875 226.68783569335938Q482.2501220703125 196.62530517578125 482.2501220703125 145.67523193359375Q482.2501220703125 69.2501220703125 426.5375671386719 27.62506103515625Q370.82501220703125 -14 276.87493896484375 -14Z"/>
<path transform="translate(1681.00,0)" d="M260.699951171875 0Q213.4498291015625 0 184.87469482421875 28.662628173828125Q156.299560546875 57.32525634765625 156.299560546875 105.700439453125V398.99951171875H26.699951171875V494.2501220703125H156.299560546875V653.1497802734375H270.7503662109375V494.2501220703125H412.699951171875V398.99951171875H270.7503662109375V125.2506103515625Q270.7503662109375 95.2506103515625 299.100341796875 95.2506103515625H398.2501220703125V0Z"/>
<path transform="translate(2118.00,0)" d="M73.1497802734375 0V494.2501220703125H185.6005859375V437.37518310546875H202.5506591796875Q214.07562255859375 467.900146484375 239.92559814453125 482.07513427734375Q265.77557373046875 496.2501220703125 302.400390625 496.2501220703125H361.87542724609375V394.0494384765625H299.52545166015625Q250.300537109375 394.0494384765625 218.9505615234375 367.5870056152344Q187.6005859375 341.12457275390625 187.6005859375 285.8497314453125V0Z"/>
<path transform="translate(2489.00,0)" d="M261.7998046875 -8.3499755859375Q204.8497314453125 -8.3499755859375 161.17474365234375 17.362579345703125Q117.499755859375 43.07513427734375 93.06228637695312 89.63766479492188Q68.62481689453125 136.2001953125 68.62481689453125 198.2501220703125V494.2501220703125H183.07562255859375V207.2001953125Q183.07562255859375 147.17547607421875 212.76296997070312 117.86306762695312Q242.4503173828125 88.5506591796875 296.2501220703125 88.5506591796875Q357.22491455078125 88.5506591796875 392.37469482421875 128.97552490234375Q427.52447509765625 169.400390625 427.52447509765625 243.82501220703125V494.2501220703125H541.9752807617188V0H429.52447509765625V69.37469482421875H412.57440185546875Q399.52447509765625 41.92486572265625 365.12457275390625 16.787445068359375Q330.72467041015625 -8.3499755859375 261.7998046875 -8.3499755859375Z"/>
<path transform="translate(3084.00,0)" d="M73.1497802734375 0V494.2501220703125H185.6005859375V424.87542724609375H202.5506591796875Q215.6005859375 453.1502685546875 250.00048828125 477.87518310546875Q284.400390625 502.60009765625 353.32525634765625 502.60009765625Q410.4503173828125 502.60009765625 454.0378112792969 476.8875427246094Q497.62530517578125 451.17498779296875 522.0627746582031 405.02496337890625Q546.500244140625 358.87493896484375 546.500244140625 296V0H432.0494384765625V287.0499267578125Q432.0494384765625 347.2496337890625 402.3620910644531 376.47454833984375Q372.67474365234375 405.699462890625 318.87493896484375 405.699462890625Q257.900146484375 405.699462890625 222.7503662109375 365.27459716796875Q187.6005859375 324.8497314453125 187.6005859375 250.42510986328125V0Z"/>
</g>
</svg>
